<svg xmlns="http://www.w3.org/2000/svg" xmlns:xlink="http://www.w3.org/1999/xlink" width="48" zoomAndPan="magnify" viewBox="0 0 36 36.000001" height="48" preserveAspectRatio="xMidYMid meet" version="1.0"><defs><g/><clipPath id="0d464e5b7c"><path d="M 0.488281 0 L 35.511719 0 L 35.511719 35.027344 L 0.488281 35.027344 Z M 0.488281 0 " clip-rule="nonzero"/></clipPath><clipPath id="6a0cf27982"><path d="M 8.980469 6 L 26.40625 6 L 26.40625 23.21875 L 8.980469 23.21875 Z M 8.980469 6 " clip-rule="nonzero"/></clipPath><clipPath id="ce6c07f1ca"><path d="M 12 4.34375 L 24 4.34375 L 24 20 L 12 20 Z M 12 4.34375 " clip-rule="nonzero"/></clipPath></defs><g clip-path="url(#0d464e5b7c)"><path fill="#ffffff" d="M 0.488281 0 L 35.511719 0 L 35.511719 35.027344 L 0.488281 35.027344 Z M 0.488281 0 " fill-opacity="1" fill-rule="nonzero"/><path fill="#ffffff" d="M 0.488281 0 L 35.511719 0 L 35.511719 35.027344 L 0.488281 35.027344 Z M 0.488281 0 " fill-opacity="1" fill-rule="nonzero"/></g><g fill="#000000" fill-opacity="1"><g transform="translate(3.493296, 30.6136)"><g><path d="M 2.859375 -2.875 L 1.015625 -2.875 L 1.015625 -1.953125 L 2.671875 -1.953125 L 2.671875 -1.4375 L 1.015625 -1.4375 L 1.015625 -0.515625 L 2.921875 -0.515625 L 2.921875 0 L 0.4375 0 L 0.4375 -3.375 L 2.859375 -3.375 Z M 2.859375 -2.875 "/></g></g></g><g fill="#000000" fill-opacity="1"><g transform="translate(6.807376, 30.6136)"><g><path d="M 1.9375 -3.390625 C 2.175781 -3.390625 2.410156 -3.34375 2.640625 -3.25 C 2.867188 -3.164062 3.0625 -3.039062 3.21875 -2.875 L 2.890625 -2.453125 C 2.765625 -2.585938 2.617188 -2.691406 2.453125 -2.765625 C 2.285156 -2.847656 2.117188 -2.890625 1.953125 -2.890625 C 1.609375 -2.890625 1.320312 -2.773438 1.09375 -2.546875 C 0.863281 -2.316406 0.75 -2.035156 0.75 -1.703125 C 0.75 -1.367188 0.863281 -1.082031 1.09375 -0.84375 C 1.320312 -0.613281 1.609375 -0.5 1.953125 -0.5 C 2.304688 -0.5 2.617188 -0.632812 2.890625 -0.90625 L 3.234375 -0.53125 C 3.054688 -0.363281 2.851562 -0.226562 2.625 -0.125 C 2.394531 -0.0195312 2.160156 0.03125 1.921875 0.03125 C 1.421875 0.03125 1.003906 -0.132812 0.671875 -0.46875 C 0.335938 -0.800781 0.171875 -1.207031 0.171875 -1.6875 C 0.171875 -2.175781 0.335938 -2.582031 0.671875 -2.90625 C 1.015625 -3.226562 1.4375 -3.390625 1.9375 -3.390625 Z M 1.9375 -3.390625 "/></g></g></g><g fill="#000000" fill-opacity="1"><g transform="translate(10.319525, 30.6136)"><g><path d="M 0.6875 -2.90625 C 1.03125 -3.226562 1.453125 -3.390625 1.953125 -3.390625 C 2.460938 -3.390625 2.890625 -3.226562 3.234375 -2.90625 C 3.578125 -2.582031 3.75 -2.175781 3.75 -1.6875 C 3.75 -1.207031 3.578125 -0.800781 3.234375 -0.46875 C 2.890625 -0.132812 2.460938 0.03125 1.953125 0.03125 C 1.453125 0.03125 1.03125 -0.132812 0.6875 -0.46875 C 0.34375 -0.800781 0.171875 -1.207031 0.171875 -1.6875 C 0.171875 -2.175781 0.34375 -2.582031 0.6875 -2.90625 Z M 1.953125 -2.875 C 1.617188 -2.875 1.332031 -2.757812 1.09375 -2.53125 C 0.863281 -2.300781 0.75 -2.019531 0.75 -1.6875 C 0.75 -1.351562 0.867188 -1.066406 1.109375 -0.828125 C 1.347656 -0.597656 1.628906 -0.484375 1.953125 -0.484375 C 2.285156 -0.484375 2.566406 -0.597656 2.796875 -0.828125 C 3.035156 -1.066406 3.15625 -1.351562 3.15625 -1.6875 C 3.15625 -2.019531 3.035156 -2.300781 2.796875 -2.53125 C 2.566406 -2.757812 2.285156 -2.875 1.953125 -2.875 Z M 1.953125 -2.875 "/></g></g></g><g fill="#000000" fill-opacity="1"><g transform="translate(14.377573, 30.6136)"><g/></g></g><g fill="#000000" fill-opacity="1"><g transform="translate(15.768931, 30.6136)"><g><path d="M 0.4375 -3.375 L 1.90625 -3.375 C 2.257812 -3.375 2.535156 -3.300781 2.734375 -3.15625 C 2.941406 -3.007812 3.046875 -2.800781 3.046875 -2.53125 C 3.046875 -2.34375 2.992188 -2.179688 2.890625 -2.046875 C 2.785156 -1.910156 2.640625 -1.820312 2.453125 -1.78125 C 2.679688 -1.738281 2.859375 -1.640625 2.984375 -1.484375 C 3.109375 -1.335938 3.171875 -1.148438 3.171875 -0.921875 C 3.171875 -0.640625 3.0625 -0.414062 2.84375 -0.25 C 2.625 -0.0820312 2.328125 0 1.953125 0 L 0.4375 0 Z M 1.015625 -2.875 L 1.015625 -1.984375 L 1.890625 -1.984375 C 2.066406 -1.984375 2.207031 -2.019531 2.3125 -2.09375 C 2.414062 -2.175781 2.46875 -2.285156 2.46875 -2.421875 C 2.46875 -2.566406 2.414062 -2.675781 2.3125 -2.75 C 2.207031 -2.832031 2.066406 -2.875 1.890625 -2.875 Z M 1.015625 -1.484375 L 1.015625 -0.5 L 1.890625 -0.5 C 2.109375 -0.5 2.28125 -0.539062 2.40625 -0.625 C 2.53125 -0.71875 2.59375 -0.84375 2.59375 -1 C 2.59375 -1.144531 2.53125 -1.257812 2.40625 -1.34375 C 2.28125 -1.4375 2.109375 -1.484375 1.890625 -1.484375 Z M 1.015625 -1.484375 "/></g></g></g><g fill="#000000" fill-opacity="1"><g transform="translate(19.324557, 30.6136)"><g><path d="M 1.015625 0 L 0.4375 0 L 0.4375 -3.375 L 1.015625 -3.375 Z M 1.015625 0 "/></g></g></g><g fill="#000000" fill-opacity="1"><g transform="translate(20.928478, 30.6136)"><g><path d="M 3.375 0 L 2.8125 0 L 1.015625 -2.421875 L 1.015625 0 L 0.4375 0 L 0.4375 -3.375 L 1 -3.375 L 2.8125 -0.953125 L 2.8125 -3.375 L 3.375 -3.375 Z M 3.375 0 "/></g></g></g><g fill="#000000" fill-opacity="1"><g transform="translate(24.89957, 30.6136)"><g><path d="M 1.015625 0 L 0.4375 0 L 0.4375 -3.375 L 1.015625 -3.375 Z M 1.015625 0 "/></g></g></g><g fill="#000000" fill-opacity="1"><g transform="translate(26.503492, 30.6136)"><g><path d="M 2.703125 -2.875 L 1.015625 -2.875 L 1.015625 -1.890625 L 2.546875 -1.890625 L 2.546875 -1.390625 L 1.015625 -1.390625 L 1.015625 0 L 0.4375 0 L 0.4375 -3.375 L 2.71875 -3.375 Z M 2.703125 -2.875 "/></g></g></g><g fill="#000000" fill-opacity="1"><g transform="translate(29.426264, 30.6136)"><g><path d="M 1.828125 -1.125 L 1.828125 0 L 1.265625 0 L 1.265625 -1.109375 L 0 -3.375 L 0.578125 -3.375 L 1.546875 -1.734375 L 2.484375 -3.375 L 3.078125 -3.375 Z M 1.828125 -1.125 "/></g></g></g><g clip-path="url(#6a0cf27982)"><path fill="#000000" d="M 26.921875 12.8125 L 25.382812 12.046875 C 25.210938 11.4375 24.96875 10.855469 24.664062 10.316406 L 25.214844 8.6875 C 24.699219 8 24.089844 7.390625 23.402344 6.875 L 21.773438 7.425781 C 21.238281 7.121094 20.664062 6.882812 20.0625 6.714844 C 20.414062 7.125 20.808594 7.542969 21.210938 7.972656 C 22.828125 9.6875 24.660156 11.636719 24.660156 13.992188 C 24.660156 17.664062 21.671875 20.652344 18 20.652344 C 14.324219 20.652344 11.335938 17.664062 11.335938 13.992188 C 11.335938 11.636719 13.167969 9.6875 14.785156 7.972656 C 15.1875 7.542969 15.582031 7.125 15.933594 6.714844 C 15.332031 6.882812 14.757812 7.121094 14.226562 7.425781 L 12.59375 6.875 C 11.90625 7.390625 11.296875 8 10.785156 8.6875 L 11.332031 10.316406 C 11.027344 10.855469 10.785156 11.4375 10.617188 12.046875 L 9.074219 12.8125 C 9.015625 13.230469 8.984375 13.65625 8.984375 14.089844 C 8.984375 14.527344 9.015625 14.953125 9.074219 15.371094 L 10.617188 16.136719 C 10.785156 16.746094 11.027344 17.324219 11.332031 17.863281 L 10.785156 19.496094 C 11.296875 20.179688 11.90625 20.792969 12.59375 21.304688 L 14.226562 20.757812 C 14.765625 21.0625 15.34375 21.304688 15.953125 21.472656 L 16.71875 23.015625 C 17.136719 23.074219 17.5625 23.105469 18 23.105469 C 18.433594 23.105469 18.859375 23.074219 19.277344 23.015625 L 20.042969 21.472656 C 20.652344 21.304688 21.234375 21.0625 21.773438 20.757812 L 23.402344 21.304688 C 24.089844 20.792969 24.699219 20.179688 25.214844 19.496094 L 24.664062 17.863281 C 24.96875 17.324219 25.210938 16.746094 25.382812 16.136719 L 26.921875 15.371094 C 26.980469 14.953125 27.011719 14.527344 27.011719 14.089844 C 27.011719 13.65625 26.980469 13.230469 26.921875 12.8125 " fill-opacity="1" fill-rule="nonzero"/></g><g clip-path="url(#ce6c07f1ca)"><path fill="#80cc28" d="M 18 4.34375 C 17.75 7.332031 12.046875 10.164062 12.046875 13.992188 C 12.046875 18.285156 16.171875 19.660156 16.171875 19.660156 C 16.171875 19.660156 17.46875 18.796875 18.496094 17.03125 C 23.640625 14.828125 17.933594 9.929688 17.933594 9.929688 C 17.933594 9.929688 17.976562 11.109375 17.273438 12.386719 C 16.476562 13.839844 15.273438 15.515625 17.328125 16.71875 C 18.828125 14.785156 18.601562 12.820312 18.601562 12.820312 C 18.660156 13.171875 18.699219 13.5 18.714844 13.816406 C 18.726562 14.699219 18.542969 16.054688 17.566406 17.445312 C 16.980469 18.277344 15.828125 18.449219 15.027344 17.828125 C 13.882812 16.9375 13.144531 15.550781 13.144531 13.992188 C 13.144531 12.351562 14.648438 10.753906 16.101562 9.210938 C 16.792969 8.476562 17.464844 7.761719 18 7.027344 C 18.53125 7.761719 19.203125 8.476562 19.894531 9.210938 C 21.347656 10.753906 22.851562 12.351562 22.851562 13.992188 C 22.851562 16.585938 20.804688 18.710938 18.246094 18.839844 C 18.089844 19.03125 17.925781 19.210938 17.757812 19.378906 C 17.574219 19.5625 17.382812 19.734375 17.195312 19.890625 C 17.457031 19.925781 17.726562 19.945312 18 19.945312 C 21.285156 19.945312 23.953125 17.28125 23.953125 13.992188 C 23.953125 10.164062 18.246094 7.332031 18 4.34375 " fill-opacity="1" fill-rule="nonzero"/></g></svg>